<?xml version="1.0" encoding="utf-8"?>
<!-- Generator: Adobe Illustrator 19.2.1, SVG Export Plug-In . SVG Version: 6.00 Build 0)  -->
<svg version="1.1" id="layer" xmlns="http://www.w3.org/2000/svg" xmlns:xlink="http://www.w3.org/1999/xlink" x="0px" y="0px"
	 viewBox="0 0 652 652" style="enable-background:new 0 0 652 652;" xml:space="preserve">
<style type="text/css">
	.st0{fill:#0A66C2;}
	.st1{fill:#FFFFFF;}
</style>
<path class="st0" d="M449.6,374.1h-20v-8.5h-0.2c-4.4,5.2-12.2,9.4-25.3,9.4c-17.9,0-33.2-13.4-33.2-36.5c0-22,15.2-36.7,33.9-36.7
	c11.6,0,18.8,4.1,23.2,9.4h0.2v-44.2h21.4V374.1z M410.1,317.8c-12.3,0-19.1,8.7-19.1,20.3c0,11.6,6.9,20.7,19.1,20.7
	c12.3,0,19.4-8.9,19.4-20.7C429.6,326,422.4,317.8,410.1,317.8L410.1,317.8z M361.4,362.6c-5.1,6.6-15.5,12.4-32.3,12.4
	c-22.4,0-36.7-14.8-36.7-38.2c0-20.7,12.9-35,37.3-35c21.1,0,34.1,13.8,34.1,38.2c0,2.4-0.4,4.8-0.4,4.8h-50.8l0.1,2.2
	c1.4,6.2,6.1,13.7,16.7,13.7c9.3,0,15.7-5,18.6-8.9L361.4,362.6z M343.2,331.2c0.1-7.5-5.4-15.2-14.1-15.2
	c-10.4,0-15.9,8.1-16.5,15.2H343.2z M292.4,302.6h-25l-25,28.6v-64.3H221v107.1h21.4v-35.7l26.4,35.7h25.3L263.9,335L292.4,302.6z
	 M135.3,302.6h20.2v10.3h0.2c3.1-5.5,12.2-11.2,23.4-11.2c21.6,0,27.6,13.7,27.6,32.7v39.6h-21.4v-35.7c0-10.5-3.8-17.8-12.7-17.8
	c-10.8,0-15.9,8.5-15.9,19.3v34.3h-21.4V302.6z M99.6,374.1H121v-71.4H99.6V374.1z M110.3,290.5c7.1,0,12.8-5.8,12.8-12.9
	s-5.8-12.9-12.8-12.9c-7.1,0-12.9,5.8-12.9,12.9S103.2,290.5,110.3,290.5z M42.4,266.9H21v107.1h64.3v-21.4H42.4V266.9z
	 M610.1,245.5H482.3c-6.1,0-11.3,4.8-11.3,10.8v128.4c0,6,3.4,10.8,9.5,10.8h127.8c6.1,0,12.7-4.8,12.7-10.8V256.3
	C621,250.3,616.3,245.5,610.1,245.5z"/>
<path class="st1" d="M528.1,302.6h20.2v10.3h0.2c3.1-5.5,12.2-11.2,23.4-11.2c21.6,0,27.6,11.5,27.6,32.7v39.6h-21.4v-35.7
	c0-9.5-3.8-17.8-12.7-17.8c-10.8,0-15.9,7.3-15.9,19.3v34.3h-21.4V302.6z M492.4,374.1h21.4v-71.4h-21.4V374.1z M516.5,277.6
	c0,7.4-6,13.4-13.4,13.4s-13.4-6-13.4-13.4s6-13.4,13.4-13.4S516.5,270.2,516.5,277.6z"/>
</svg>
